<svg xmlns="http://www.w3.org/2000/svg" xmlns:xlink="http://www.w3.org/1999/xlink" width="228" height="263" viewBox="0 0 228 263">
  <defs>
  <style>
            body{
              margin: 0;
    padding: 0;
    text-align: center;
    display: flex;
    justify-content: center;
    align-items: center;
    height: 100%;
    height: 100vh;
            }
            .cls-1 {
              clip-path: url(#clip-logo);
            }
      
            .cls-2, .cls-3 {
              fill: none;
              stroke-width: 4px;
            }
      
            .cls-2 {
              stroke: #d1ad3e;
            }
      
            .cls-3 {
              stroke: #c21400;
            }
      
            .cls-4 {
              fill: #d1ad3e;
            }
      
            .cls-5 {
              fill: #c21400;
            }
      
            .cls-6 {
              fill: #fff;
            }
path {
  stroke-dasharray:500; 
  stroke-dashoffset:500;
  animation: draw 7.5s infinite;
  animation-delay:1s;
}
circle {
  opacity: 0;
  animation: opacity 7.5s infinite;
  animation-delay:1s;
}
#Ellipse_18{
    opacity: 0;
  animation: opacity 2.5s infinite;
  animation-delay:3s;
}
@keyframes opacity{
	from {opacity: 0;}
	to {opacity: 1;}
}
@keyframes pulse{
	from{
        transform: scale(0);
    }
	to {
        transform: scale(1);
    }
}
 
 @keyframes draw {
  to {
    stroke-dashoffset: 0;
  }
}

        </style>
    <clipPath id="clip-logo">
      <rect width="228" height="263"/>
    </clipPath>
  </defs>
  <g id="logo" class="cls-1">
    <rect class="cls-6" width="228" height="263"/>
    <path id="Path_1" data-name="Path 1" class="cls-2" d="M182.286,314.714H163.429a11.364,11.364,0,0,0-10.6,7.952c-2.667,8.083,4.333,14.5,9.083,14.5s-23.917.4-23.917.4-11.937.366-11.917,11.679,14.1,12.125,10.06,12.179c-6.83,1.259-14.821,3.914-21.226,12.238A31.32,31.32,0,0,0,110,383.188a46.649,46.649,0,0,0-1.937,11.438" transform="translate(-86 -263)"/>
    <path id="Path_2" data-name="Path 2" class="cls-2" d="M135,361h36s4.979.333,8.333,3.417,3.573,8.177,3.573,8.177.219,5.031-3.156,8.323a19.007,19.007,0,0,1-8.25,4.333" transform="translate(-86 -263)"/>
    <path id="Path_3" data-name="Path 3" class="cls-2" d="M147.5,388.5H122.25a23.9,23.9,0,0,0-14.75,7c-6.25,6.583-6.333,12-6.5,16s1.75,11.25,7.667,16.667A20.928,20.928,0,0,0,116.875,433c6.317,1.883,13.813.875,13.813.875" transform="translate(-86 -263)"/>
    <path id="Path_7" data-name="Path 7" class="cls-2" d="M194.5,399.875s-.906,6-4.125,9.25-8.75,3.75-8.75,3.75h-33.5a11.926,11.926,0,0,0-10.75,9.813,11.325,11.325,0,0,0,2.813,9.875c3.019,3.217,7.938,4.188,7.938,4.188" transform="translate(-86 -263)"/>
    <path id="Path_4" data-name="Path 4" class="cls-2" d="M112.75,431s-3.5,7.917,3.917,18.75a28.083,28.083,0,0,0,18.917,11.917h31.583s8.167-.167,12.25-3.583S183.5,448,183.5,448" transform="translate(-86 -263)"/>
    <path id="Path_5" data-name="Path 5" class="cls-2" d="M135,461.25s-5.562,1.5-8,4.75-2.687,6.063-2.125,8.313A11.284,11.284,0,0,0,129.833,482c3.9,2.813,12.417,2,12.417,2" transform="translate(-86 -263)"/>
    <path id="Path_6" data-name="Path 6" class="cls-3" d="M142.25,485.5s1,26.333,27.625,24.25,24.625-25.5,24.625-25.5v-202" transform="translate(-86 -263)"/>
    <path id="Path_11" data-name="Path 11" class="cls-2" d="M204,400.375s.906,5.823,4.25,9.042,9,3.333,9,3.333l38,.25a13.132,13.132,0,0,1,7.167,3.333c2.813,2.875,4.083,8.417,4.083,8.417" transform="translate(-86 -263)"/>
    <path id="Path_8" data-name="Path 8" class="cls-3" d="M225.813,460.469s-6.344.188-10.25-4.687a11.784,11.784,0,0,1-2.625-9.75,12.857,12.857,0,0,1,3.875-6.656,12.7,12.7,0,0,1,7-2.937H243.5s5.094.953,8.063,3.938,3.813,8,3.813,8v37.75s-.156,11.167-6.875,17.042a26.855,26.855,0,0,1-20,6.458c-5.312-.5-10.875-1.5-17.375-8s-7-15.458-7-15.458L204,304.25s.375-7.875,7.667-15.75,18.458-7.25,18.458-7.25,10.375,0,17.542,7.25a29.26,29.26,0,0,1,7.833,16.833v32.833" transform="translate(-86 -263)"/>
    <path id="Path_9" data-name="Path 9" class="cls-2" d="M214.75,326.625a14.609,14.609,0,0,1,3-8.125,12.678,12.678,0,0,1,7.5-3.875h10.375s4.031.375,6.344,2.719a12.687,12.687,0,0,1,3.406,6.625,11.3,11.3,0,0,1-2.344,9.281c-3.156,4.219-8.594,4.031-8.594,4.031l25.5.281a11.662,11.662,0,0,1,8.406,3.156,13.216,13.216,0,0,1,3.75,8.531s-.062,4.75-2.844,7.813-8,4.438-8,4.438" transform="translate(-86 -263)"/>
    <path id="Path_10" data-name="Path 10" class="cls-2" d="M289.75,394.848a40.009,40.009,0,0,0-1.375-11.285,34.431,34.431,0,0,0-5.062-9.75,40.067,40.067,0,0,0-9.875-8.5,39.559,39.559,0,0,0-12.187-4.062h-35.5a10.655,10.655,0,0,0-7.437,3.75,11.905,11.905,0,0,0,0,15.875,15.579,15.579,0,0,0,8.5,4.688" transform="translate(-86 -263)"/>
    <path id="Path_12" data-name="Path 12" class="cls-2" d="M250,388.375h25.25s9.125.875,15.25,6.875,6.688,15.25,6.688,15.25.063,9.25-5.75,16-16.187,8-16.187,8" transform="translate(-86 -263)"/>
    <path id="Path_13" data-name="Path 13" class="cls-2" d="M285.75,431.375A28.451,28.451,0,0,1,281,450.417c-6.333,9.083-18.25,11.208-18.25,11.208H241" transform="translate(-86 -263)"/>
    <path id="Path_14" data-name="Path 14" class="cls-2" d="M264.625,461.625a13.028,13.028,0,0,1,6.844,4.688,12.482,12.482,0,0,1,2.063,7.781,11.816,11.816,0,0,1-4.219,7.188,12.033,12.033,0,0,1-8.146,2.552H228.833" transform="translate(-86 -263)"/>
    <circle id="Ellipse_1" data-name="Ellipse 1" class="cls-4" cx="5" cy="5" r="5" transform="translate(91 47)"/>
    <circle id="Ellipse_2" data-name="Ellipse 2" class="cls-4" cx="5" cy="5" r="5" transform="translate(73 70)"/>
    <circle id="Ellipse_3" data-name="Ellipse 3" class="cls-4" cx="5" cy="5" r="5" transform="translate(80 117)"/>
    <circle id="Ellipse_4" data-name="Ellipse 4" class="cls-4" cx="5" cy="5" r="5" transform="translate(56 120)"/>
    <circle id="Ellipse_5" data-name="Ellipse 5" class="cls-4" cx="5" cy="5" r="5" transform="translate(40 166)"/>
    <circle id="Ellipse_6" data-name="Ellipse 6" class="cls-4" cx="5" cy="5" r="5" transform="translate(58 168)"/>
    <circle id="Ellipse_7" data-name="Ellipse 7" class="cls-4" cx="5" cy="5" r="5" transform="translate(93 181)"/>
    <circle id="Ellipse_10" data-name="Ellipse 10" class="cls-4" cx="5" cy="5" r="5" transform="translate(150 194)"/>
    <circle id="Ellipse_12" data-name="Ellipse 12" class="cls-4" cx="5" cy="5" r="5" transform="translate(184 166)"/>
    <circle id="Ellipse_13" data-name="Ellipse 13" class="cls-4" cx="5" cy="5" r="5" transform="translate(175 157)"/>
    <circle id="Ellipse_14" data-name="Ellipse 14" class="cls-4" cx="5" cy="5" r="5" transform="translate(159 120)"/>
    <circle id="Ellipse_15" data-name="Ellipse 15" class="cls-4" cx="5" cy="5" r="5" transform="translate(136 117)"/>
    <circle id="Ellipse_16" data-name="Ellipse 16" class="cls-4" cx="5" cy="5" r="5" transform="translate(144 69)"/>
    <circle id="Ellipse_17" data-name="Ellipse 17" class="cls-4" cx="5" cy="5" r="5" transform="translate(124 58)"/>
    <circle id="Ellipse_18" data-name="Ellipse 18" class="cls-5" cx="5" cy="5" r="5" transform="translate(103 15)"/>
    <circle id="Ellipse_11" data-name="Ellipse 11" class="cls-4" cx="5" cy="5" r="5" transform="translate(139 216)"/>
    <circle id="Ellipse_8" data-name="Ellipse 8" class="cls-5" cx="5" cy="5" r="5" transform="translate(52 216)"/>
    <circle id="Ellipse_9" data-name="Ellipse 9" class="cls-5" cx="5" cy="5" r="5" transform="translate(135 193)"/>
  </g>
</svg>
