<?xml version="1.0" encoding="UTF-8"?>
<!DOCTYPE svg PUBLIC "-//W3C//DTD SVG 1.1//EN" "http://www.w3.org/Graphics/SVG/1.1/DTD/svg11.dtd">
<!-- Creator: CorelDRAW 2019 (64-Bit) -->
<svg xmlns="http://www.w3.org/2000/svg" xml:space="preserve" width="110.773mm" height="170mm" version="1.1" style="shape-rendering:geometricPrecision; text-rendering:geometricPrecision; image-rendering:optimizeQuality; fill-rule:evenodd; clip-rule:evenodd"
viewBox="0 0 11063.14 16978.24"
 xmlns:xlink="http://www.w3.org/1999/xlink"
 xmlns:xodm="http://www.corel.com/coreldraw/odm/2003">
 <defs>
  <style type="text/css">
   <![CDATA[
    .fil2 {fill:#373435;fill-rule:nonzero}
    .fil1 {fill:url(#id0);fill-rule:nonzero}
    .fil0 {fill:url(#id1);fill-rule:nonzero}
   ]]>
  </style>
  <linearGradient id="id0" gradientUnits="userSpaceOnUse" x1="4818.85" y1="12430.59" x2="6371.47" y2="16546.18">
   <stop offset="0" style="stop-opacity:1; stop-color:#CCA43C"/>
   <stop offset="0.258824" style="stop-opacity:1; stop-color:#DBB13B"/>
   <stop offset="0.360784" style="stop-opacity:1; stop-color:#E0C470"/>
   <stop offset="0.639216" style="stop-opacity:1; stop-color:#DAB139"/>
   <stop offset="0.811765" style="stop-opacity:1; stop-color:#FFD260"/>
   <stop offset="1" style="stop-opacity:1; stop-color:#DAA939"/>
  </linearGradient>
  <linearGradient id="id1" gradientUnits="userSpaceOnUse" x1="5440.2" y1="0" x2="5440.2" y2="12868.59">
   <stop offset="0" style="stop-opacity:1; stop-color:#730D01"/>
   <stop offset="0.301961" style="stop-opacity:1; stop-color:#C01300"/>
   <stop offset="0.501961" style="stop-opacity:1; stop-color:#F22400"/>
   <stop offset="0.701961" style="stop-opacity:1; stop-color:#BD1300"/>
   <stop offset="1" style="stop-opacity:1; stop-color:#800D00"/>
  </linearGradient>
 </defs>
 <g id="Layer_x0020_1">
  <metadata id="CorelCorpID_0Corel-Layer"/>
  <g id="_1912410998880">
   <path class="fil0" d="M-0 12724.79c323.72,35.94 593.47,35.94 953.16,35.94 1492.69,0 2841.52,-647.02 2841.52,-3163.23l0 -9453.75 -1978.26 0 0 9597.53c0,970.54 -503.57,1204.17 -1133.02,1204.17 -215.81,0 -467.58,0 -683.39,-17.96l0 1797.28zm8110.87 -5212.12l899.21 0 0 2318.49c0,898.64 -395.65,1222.15 -1025.1,1222.15 -629.46,0 -1025.11,-323.51 -1025.11,-1222.15l0 -6793.77c0,-898.63 395.65,-1240.11 1025.11,-1240.11 629.45,0 1025.1,341.48 1025.1,1240.11l0 1347.99 1870.35 0 0 -1222.15c0,-2012.98 -1007.11,-3163.23 -2949.41,-3163.23 -1942.29,0 -2949.41,1150.24 -2949.41,3163.23l0 6542.13c0,2012.96 1007.12,3163.24 2949.41,3163.24 1942.3,0 2949.41,-1150.27 2949.41,-3163.24l0 -3989.97 -2769.56 0 0 1797.29z"/>
   <path class="fil1" d="M127.18 13382.56l0 1681.63c0,353.37 176.79,555.31 517.76,555.31 340.94,0 517.74,-201.94 517.74,-555.31l0 -1681.63 -328.33 0 0 1703.73c0,157.74 -69.44,214.54 -179.95,214.54 -110.49,0 -179.96,-56.81 -179.96,-214.54l0 -1703.73 -347.27 0zm2014.19 2208.53l356.75 0 0 -2208.53 -309.39 0 0 1321.95 -6.31 0 -350.44 -1321.95 -435.65 0 0 2208.53 312.55 0 0 -1599.6 6.31 0 426.18 1599.6zm606.17 0l347.28 0 0 -2208.53 -347.28 0 0 2208.53zm858.71 -2208.53l-350.43 0 340.94 2208.53 517.76 0 340.95 -2208.53 -318.86 0 -262.04 1801.54 -6.31 0 -262.01 -1801.54zm1357.53 315.5l599.83 0 0 -315.5 -947.11 0 0 2208.53 947.11 0 0 -315.5 -599.83 0 0 -646.78 476.7 0 0 -315.5 -476.7 0 0 -615.24zm1894.23 1893.03c-34.74,-82.03 -37.89,-160.92 -37.89,-268.19l0 -340.75c0,-230.31 -56.82,-394.36 -230.46,-466.94l0 -6.3c154.69,-72.58 227.31,-217.71 227.31,-444.87l0 -173.54c0,-340.72 -154.71,-507.95 -514.61,-507.95l-524.06 0 0 2208.53 347.28 0 0 -899.19 119.95 0c157.87,0 227.31,75.73 227.31,280.8l0 347.06c0,179.84 12.62,214.54 31.58,271.33l353.6 0zm-565.12 -1893.03c123.13,0 176.79,69.42 176.79,227.16l0 217.7c0,176.69 -78.93,233.47 -208.34,233.47l-135.76 0 0 -678.33 167.31 0zm710.34 214.54c0,252.39 91.55,435.38 381.99,690.95 227.31,198.75 296.78,318.65 296.78,479.57 0,157.74 -69.47,214.52 -179.96,214.52 -110.51,0 -179.95,-56.79 -179.95,-214.52l0 -157.77 -328.32 0 0 135.67c0,353.38 176.79,555.31 517.73,555.31 340.97,0 517.76,-201.93 517.76,-555.31 0,-252.39 -91.55,-435.38 -382.01,-690.94 -227.31,-198.78 -296.75,-318.66 -296.75,-479.58 0,-157.74 63.13,-217.7 173.62,-217.7 110.51,0 173.64,59.96 173.64,217.7l0 91.5 328.36 0 0 -69.4c0,-353.37 -173.65,-555.31 -511.46,-555.31 -337.79,0 -511.43,201.94 -511.43,555.31zm1224.93 1678.48l347.28 0 0 -2208.53 -347.28 0 0 2208.53zm498.81 -1893.03l363.06 0 0 1893.03 347.25 0 0 -1893.03 363.05 0 0 -315.5 -1073.37 0 0 315.5zm1550.1 1893.03l347.28 0 0 -731.97 438.81 -1476.56 -331.47 0 -262.04 1006.45 -6.31 0 -262.03 -1006.45 -363.06 0 438.84 1476.56 0 731.97z"/>
   <path class="fil2" d="M608.15 16087.94l278.39 0 0 -146.44 -439.57 0 0 1025.01 439.57 0 0 -146.42 -278.39 0 0 -300.18 221.24 0 0 -146.44 -221.24 0 0 -285.52zm766.3 -146.44l-123.07 377.78 -2.94 0 -120.14 -377.78 -167.05 0 168.5 497.86 -180.22 527.15 150.92 0 131.86 -405.62 2.95 0 130.39 405.62 169.98 0 -180.23 -527.15 168.49 -497.86 -149.46 0zm534.81 642.82l0 146.44c0,73.21 -32.23,99.57 -83.51,99.57 -51.27,0 -83.52,-26.37 -83.52,-99.57l0 -553.52c0,-73.21 32.25,-101.03 83.52,-101.03 51.28,0 83.51,27.82 83.51,101.03l0 109.83 152.39 0 0 -99.56c0,-164.01 -82.05,-257.72 -240.3,-257.72 -158.24,0 -240.29,93.71 -240.29,257.72l0 533c0,164 82.05,257.73 240.29,257.73 158.25,0 240.3,-93.73 240.3,-257.73l0 -136.19 -152.39 0zm411.74 -496.38l278.39 0 0 -146.44 -439.57 0 0 1025.01 439.57 0 0 -146.42 -278.39 0 0 -300.18 221.24 0 0 -146.44 -221.24 0 0 -285.52zm378.02 878.57l426.37 0 0 -146.42 -265.21 0 0 -878.59 -161.16 0 0 1025.01zm496.71 0l426.37 0 0 -146.42 -265.2 0 0 -878.59 -161.17 0 0 1025.01zm657.88 -878.57l278.39 0 0 -146.44 -439.57 0 0 1025.01 439.57 0 0 -146.42 -278.39 0 0 -300.18 221.25 0 0 -146.44 -221.25 0 0 -285.52zm722.34 878.57l165.58 0 0 -1025.01 -143.6 0 0 613.54 -2.93 0 -162.64 -613.54 -202.19 0 0 1025.01 145.05 0 0 -742.4 2.93 0 197.8 742.4zm596.34 -382.19l0 146.44c0,73.21 -32.23,99.57 -83.51,99.57 -51.27,0 -83.51,-26.37 -83.51,-99.57l0 -553.52c0,-73.21 32.24,-101.03 83.51,-101.03 51.28,0 83.51,27.82 83.51,101.03l0 109.83 152.4 0 0 -99.56c0,-164.01 -82.05,-257.72 -240.3,-257.72 -158.25,0 -240.3,93.71 -240.3,257.72l0 533c0,164 82.05,257.73 240.3,257.73 158.25,0 240.3,-93.73 240.3,-257.73l0 -136.19 -152.4 0zm411.74 -496.38l278.39 0 0 -146.44 -439.57 0 0 1025.01 439.57 0 0 -146.42 -278.39 0 0 -300.18 221.25 0 0 -146.44 -221.25 0 0 -285.52zm848.36 -146.44l-243.23 0 0 1025.01 253.47 0c161.18,0 244.71,-84.92 244.71,-243.07l0 -83.46c0,-108.37 -33.71,-184.51 -120.16,-218.19l0 -2.94c71.79,-33.67 104.04,-99.57 104.04,-205l0 -36.61c0,-158.15 -71.8,-235.75 -238.83,-235.75l0 0zm-10.26 563.77c73.26,0 104.03,29.28 104.03,124.45l0 89.33c0,76.14 -29.31,101.05 -83.52,101.05l-92.3 0 0 -314.83 71.8 0zm5.85 -417.32c57.15,0 82.05,32.21 82.05,105.42l0 57.11c0,81.99 -36.63,108.35 -96.71,108.35l-63 0 0 -270.88 77.65 0zm485 878.57l161.17 0 0 -339.71 203.67 -685.3 -153.84 0 -121.61 467.11 -2.94 0 -121.61 -467.11 -168.49 0 203.66 685.3 0 339.71zm971.44 -382.19l0 146.44c0,73.21 -32.24,99.57 -83.52,99.57 -51.26,0 -83.51,-26.37 -83.51,-99.57l0 -553.52c0,-73.21 32.25,-101.03 83.51,-101.03 51.28,0 83.52,27.82 83.52,101.03l0 109.83 152.39 0 0 -99.56c0,-164.01 -82.05,-257.72 -240.3,-257.72 -158.25,0 -240.3,93.71 -240.3,257.72l0 533c0,164 82.05,257.73 240.3,257.73 158.25,0 240.3,-93.73 240.3,-257.73l0 -136.19 -152.39 0zm411.73 -57.1l183.14 0 0 439.29 164.11 0 0 -1025.01 -164.11 0 0 439.29 -183.14 0 0 -439.29 -161.17 0 0 1025.01 161.17 0 0 -439.29zm612.46 -349.98c0,-73.21 32.25,-101.03 83.51,-101.03 51.28,0 83.52,27.82 83.52,101.03l0 553.52c0,73.21 -32.24,101.03 -83.52,101.03 -51.26,0 -83.51,-27.82 -83.51,-101.03l0 -553.52zm-161.17 543.26c0,164 86.44,257.73 244.69,257.73 158.25,0 244.71,-93.73 244.71,-257.73l0 -533c0,-164.01 -86.46,-257.72 -244.71,-257.72 -158.25,0 -244.69,93.71 -244.69,257.72l0 533zm593.43 246l161.16 0 0 -1025.01 -161.16 0 0 1025.01zm593.41 -382.19l0 146.44c0,73.21 -32.24,99.57 -83.52,99.57 -51.26,0 -83.51,-26.37 -83.51,-99.57l0 -553.52c0,-73.21 32.25,-101.03 83.51,-101.03 51.28,0 83.52,27.82 83.52,101.03l0 109.83 152.39 0 0 -99.56c0,-164.01 -82.05,-257.72 -240.3,-257.72 -158.25,0 -240.3,93.71 -240.3,257.72l0 533c0,164 82.05,257.73 240.3,257.73 158.25,0 240.3,-93.73 240.3,-257.73l0 -136.19 -152.39 0zm411.73 -496.38l278.39 0 0 -146.44 -439.57 0 0 1025.01 439.57 0 0 -146.42 -278.39 0 0 -300.18 221.25 0 0 -146.44 -221.25 0 0 -285.52z"/>
  </g>
 </g>
</svg>
